Coordinates
version=1
nRows=14
nColumns=24
inDegrees=yes

Units are S.I. units (second, meters, Newtons, ...)
Angles are in degrees.

endheader
time	pelvis_tilt	pelvis_list	pelvis_rotation	pelvis_tx	pelvis_ty	pelvis_tz	hip_flexion_r	hip_adduction_r	hip_rotation_r	knee_angle_r	ankle_angle_r	subtalar_angle_r	mtp_angle_r	hip_flexion_l	hip_adduction_l	hip_rotation_l	knee_angle_l	ankle_angle_l	subtalar_angle_l	mtp_angle_l	lumbar_extension	lumbar_bending	lumbar_rotation
      0.77100000	     -2.98603717	      3.31076814	     14.01572612	      0.03110389	      0.97942398	      0.25721470	     27.21795419	     -6.74214544	     -9.67047172	      1.85665793	      7.60984735	    -14.69854990	      4.87985291	    -20.22592934	      2.09163120	     13.87012932	     -3.11851809	      8.00179795	    -10.59770263	     11.04186045	      1.24859185	     -5.70851896	     -4.31389376
      0.77516667	     -2.98772731	      3.26291714	     14.15136808	      0.03712193	      0.97880116	      0.25735032	     27.20845817	     -6.71254045	     -9.68128577	      1.48929323	      7.71179064	    -14.94213634	      4.87210054	    -20.39424655	      1.91936966	     13.89781139	     -3.41412413	      7.85528616	    -10.54571075	     11.05156889	      1.27248523	     -5.63670662	     -4.35328585
      0.77933333	     -2.98944976	      3.21016343	     14.27818552	      0.04318629	      0.97820259	      0.25752005	     27.16055410	     -6.66348568	     -9.52960174	      1.16903102	      7.64699124	    -15.46805404	      4.85019151	    -20.52966383	      1.74555053	     13.83815808	     -3.77362292	      7.74631301	    -10.34937381	     11.12309812	      1.30918084	     -5.53991673	     -4.56098234
      0.78350000	     -2.99562978	      3.13281005	     14.40763148	      0.04932386	      0.97762673	      0.25768398	     27.12674656	     -6.59115238	     -9.44664153	      0.79586379	      7.60333464	    -15.85708789	      4.84219320	    -20.65228040	      1.54743011	     13.80574002	     -4.13953812	      7.59684211	    -10.19121995	     11.21020180	      1.35759634	     -5.41911032	     -4.63777838
      0.78766667	     -2.98767314	      3.05669360	     14.52077203	      0.05549555	      0.97709621	      0.25788070	     27.07606848	     -6.50435145	     -9.34346890	      0.40806143	      7.43090104	    -16.31355751	      4.84587817	    -20.76496296	      1.35509569	     13.71003755	     -4.55599925	      7.45675630	    -10.01680561	     11.35331824	      1.40230495	     -5.30701619	     -4.74538350
      0.79183333	     -2.98748993	      2.94948567	     14.63357049	      0.06175295	      0.97658492	      0.25807636	     27.03429882	     -6.38554104	     -9.26476195	     -0.00401853	      7.27875065	    -16.69605033	      4.85963192	    -20.86534757	      1.13248985	     13.64380688	     -4.96460703	      7.24977279	     -9.87139031	     11.48327885	      1.47114790	     -5.14699357	     -4.81588809
      0.79600000	     -2.97858849	      2.83644155	     14.73610028	      0.06804770	      0.97611547	      0.25828332	     26.97816749	     -6.24985938	     -9.16655149	     -0.41831976	      7.00070352	    -17.15904646	      4.88630055	    -20.94570560	      0.90940006	     13.52340156	     -5.42949913	      7.05284942	     -9.69447325	     11.65472849	      1.53946288	     -4.98463287	     -4.90655887
      0.80016667	     -2.98522989	      2.72541172	     14.83919008	      0.07433852	      0.97565493	      0.25852335	     26.95903985	     -6.11871932	     -9.10573668	     -0.88743400	      6.69557112	    -17.58644400	      5.75648366	    -20.95105668	      0.69236063	     13.29930480	     -6.00351125	      6.90030437	     -9.36597916	     15.60385871	      1.61758532	     -4.84095673	     -4.95166747
      0.80433333	     -2.95897042	      2.57769331	     14.89318029	      0.08075406	      0.97526905	      0.25879638	     26.89868681	     -5.91814636	     -8.99950193	     -1.33484301	      6.33256846	    -17.97137642	      5.75854816	    -21.04373601	      0.44826559	     13.17551286	     -6.46156169	      6.56411920	     -9.32881242	     15.64116857	      1.68129532	     -4.62070755	     -5.02025807
      0.80850000	     -2.94990919	      2.44304383	     14.95860802	      0.08713675	      0.97490256	      0.25910059	     26.85292968	     -5.73196638	     -8.84398143	     -1.78736409	      5.86790373	    -18.56202106	      5.78223316	    -21.04872460	      0.22208672	     12.97745067	     -7.06446883	      6.35514107	     -9.11784567	     15.75450615	      1.76293899	     -4.44400095	     -5.07978343
      0.81266667	     -2.95421137	      2.27657594	     15.00755077	      0.09359648	      0.97455508	      0.25941538	     26.83901469	     -5.51223137	     -8.74419844	     -2.27348350	      5.39658975	    -19.02607492	      5.82752256	    -21.02102077	     -0.02685493	     12.74105884	     -7.68645090	      6.08414347	     -8.87553030	     15.92972028	      1.87710362	     -4.22428792	     -5.11004840
      0.81683333	     -2.95320211	      2.09856388	     15.03955030	      0.10008309	      0.97424977	      0.25975954	     26.83182866	     -5.27233161	     -8.64702795	     -2.78263084	      4.89440617	    -19.47505458	      5.89306592	    -20.97399939	     -0.28193752	     12.47203454	     -8.34946252	      5.78611012	     -8.61902829	     16.17132600	      1.99031398	     -3.98745453	     -5.13117605
      0.82100000	     -2.85350875	      1.88447364	     15.03726844	      0.10663573	      0.97409116	      0.26013763	     26.73765593	     -4.96134310	     -8.61019483	     -3.31609039	      4.43535091	    -19.80827007	      6.40544210	    -21.00184786	     -0.59820951	     12.03336670	     -9.04784642	      5.49332519	     -8.17595842	     17.98621535	      2.00629969	     -3.65837388	     -5.11849172
      0.82516667	     -2.96037618	      1.71456574	     15.05144503	      0.11312616	      0.97374684	      0.26051696	     26.88178635	     -4.75313567	     -8.51336673	     -3.90967522	      3.89009781	    -20.19711450	      6.44636732	    -20.79665969	     -0.79500736	     11.85625195	     -9.79428602	      5.06397082	     -8.13738356	     18.17942082	      2.25504544	     -3.47846967	     -5.13417787
